<svg version="1.1" xmlns="http://www.w3.org/2000/svg" viewBox="0 0 1024 1024"><path d="M512 504.57A220 220 0 0 1 356.44 129a220 220 0 1 1 311.12 311.13A218.57 218.57 0 0 1 512 504.57z m0-380c-88.22 0-160 71.77-160 160s71.78 160 160 160 160-71.78 160-160-71.78-160-160-160zM512 958.29H119.39A30 30 0 0 1 89.87 923c18.76-104.28 70.32-199.44 145.18-268a418 418 0 0 1 125.28-79.6 392.86 392.86 0 0 1 148.25-29 30 30 0 1 1 0 60c-163.28 0-306.34 120.73-351.81 291.82H512a30 30 0 0 1 0 60z"  /><path d="M751.52 960.31H694a23 23 0 0 1-22.76-19.51l-5.56-35.95q-4.57-1.71-9-3.69l-29.36 21.78a23 23 0 0 1-30-2.22L556.55 880a23 23 0 0 1-2.3-29.89l21.22-29q-2.16-4.67-4-9.45l-35.66-5.28a23 23 0 0 1-19.65-22.79v-57.5a23 23 0 0 1 19.51-22.76l34.84-5.39q1.89-5.13 4.12-10.13l-21.1-28.44a23 23 0 0 1 2.21-30l40.7-40.7a23 23 0 0 1 29.89-2.3l28.09 20.57q5.18-2.38 10.49-4.41l5.09-34.61a23 23 0 0 1 22.78-19.65h57.56a23 23 0 0 1 22.76 19.51l5.32 34.41q5.31 2 10.48 4.33l28.15-20.88a23 23 0 0 1 30 2.21l40.7 40.7a23 23 0 0 1 2.29 29.89l-20.85 28.48q2.25 4.94 4.14 10l35.16 5.21a23 23 0 0 1 19.66 22.78v57.56a23 23 0 0 1-19.51 22.76l-35.53 5.49q-1.8 4.75-3.9 9.4l21.57 29.06a23 23 0 0 1-2.22 30l-40.65 40.72a23 23 0 0 1-29.91 2.3l-29.37-21.5q-4.42 2-9 3.74l-5.36 36.21a23 23 0 0 1-22.75 19.66z m-37.81-46.06h17.95l4.53-30.61a23.06 23.06 0 0 1 16.67-18.83 114.3 114.3 0 0 0 26.52-11 23.06 23.06 0 0 1 25.06 1.4l24.86 18.21 12.7-12.73-18.23-24.57a23 23 0 0 1-1.48-25.2 114.66 114.66 0 0 0 11.17-26.85 23 23 0 0 1 18.69-16.69l30-4.64V744.8l-29.66-4.4a23 23 0 0 1-18.87-16.82 114.85 114.85 0 0 0-11.3-27.37 23 23 0 0 1 1.4-25.07l17.56-24-12.69-12.69-23.7 17.55a23 23 0 0 1-25.22 1.46A114.6 114.6 0 0 0 751.93 642a23 23 0 0 1-16.82-18.73l-4.49-29h-17.94l-4.3 29a23 23 0 0 1-16.72 18.84A114.78 114.78 0 0 0 664 653.85a23 23 0 0 1-25.23-1.3L615 635.2l-12.69 12.69 17.71 23.87a23 23 0 0 1 1.54 25.06 114.61 114.61 0 0 0-11.15 27.51 23 23 0 0 1-18.76 16.94l-29.48 4.56v17.95l30 4.44A23 23 0 0 1 611 784.79a114.61 114.61 0 0 0 11.38 26.84 23 23 0 0 1-1.31 25.21l-18 24.58 12.69 12.68 24.77-18.37a23 23 0 0 1 25-1.57A114.18 114.18 0 0 0 692.19 865 23 23 0 0 1 709 883.76z m191.45-131.76z"  /><path d="M722.17 830.18a75.89 75.89 0 1 1 75.89-75.89 76 76 0 0 1-75.89 75.89z m0-105.72A29.83 29.83 0 1 0 752 754.29a29.86 29.86 0 0 0-29.83-29.83z"  /></svg>