<?xml version="1.0" encoding="UTF-8"?>
<svg xmlns="http://www.w3.org/2000/svg" xmlns:xlink="http://www.w3.org/1999/xlink" width="20px" height="20px" viewBox="0 0 20 20" version="1.1">
<g id="surface1">
<path style=" stroke:none;fill-rule:nonzero;fill:rgb(30.19608%,30.19608%,30.19608%);fill-opacity:1;" d="M 11.191406 18.109375 C 11.191406 18.457031 11.476562 18.742188 11.828125 18.742188 C 12.175781 18.742188 12.460938 18.457031 12.460938 18.109375 C 12.460938 17.761719 12.175781 17.476562 11.828125 17.476562 C 11.476562 17.476562 11.191406 17.761719 11.191406 18.109375 Z M 11.191406 18.109375 "/>
<path style=" stroke:none;fill-rule:nonzero;fill:rgb(30.19608%,30.19608%,30.19608%);fill-opacity:1;" d="M 15 8.753906 L 6.25 8.753906 L 6.25 6.242188 C 6.25 4.179688 7.9375 2.492188 10 2.492188 C 12.0625 2.492188 13.734375 4.179688 13.734375 6.242188 L 13.734375 6.867188 C 13.734375 7.214844 14.035156 7.496094 14.382812 7.496094 C 14.730469 7.496094 15.011719 7.214844 15.011719 6.867188 C 15.011719 6.855469 15.011719 6.84375 15.011719 6.835938 L 15.011719 6.253906 C 15.011719 3.5 12.757812 1.242188 10 1.238281 C 7.238281 1.238281 4.980469 3.492188 4.980469 6.253906 L 4.980469 8.753906 C 3.605469 8.753906 2.480469 9.878906 2.480469 11.253906 L 2.480469 16.234375 C 2.480469 17.609375 3.605469 18.734375 4.980469 18.734375 L 9.246094 18.734375 C 9.257812 18.734375 9.273438 18.738281 9.289062 18.738281 C 9.640625 18.738281 9.921875 18.453125 9.921875 18.105469 C 9.921875 17.757812 9.636719 17.472656 9.289062 17.472656 L 9.285156 17.472656 L 9.285156 17.46875 L 5 17.46875 C 4.3125 17.46875 3.75 16.90625 3.75 16.21875 L 3.75 11.269531 C 3.75 10.582031 4.3125 10.019531 5 10.019531 L 14.980469 10.019531 C 15.667969 10.019531 16.230469 10.582031 16.230469 11.269531 L 16.230469 16.21875 C 16.230469 16.90625 15.667969 17.46875 14.980469 17.46875 L 14.367188 17.46875 C 14.015625 17.46875 13.734375 17.753906 13.734375 18.101562 C 13.734375 18.453125 14.019531 18.734375 14.367188 18.734375 L 15 18.734375 C 16.375 18.734375 17.5 17.609375 17.5 16.234375 L 17.5 11.253906 C 17.5 9.878906 16.375 8.753906 15 8.753906 Z M 15 8.753906 "/>
</g>
</svg>
