<?xml version="1.0" encoding="UTF-8"?>
<svg xmlns="http://www.w3.org/2000/svg" xmlns:xlink="http://www.w3.org/1999/xlink" width="28px" height="28px" viewBox="0 0 28 28" version="1.1">
<g id="surface1">
<path style=" stroke:none;fill-rule:nonzero;fill:rgb(0%,0%,0%);fill-opacity:1;" d="M 25.023438 12.25 L 24.910156 11.761719 L 14.328125 11.761719 L 14.328125 16.242188 L 20.648438 16.242188 C 19.992188 19.359375 16.949219 21 14.460938 21 C 12.648438 21 10.742188 20.238281 9.476562 19.015625 C 8.179688 17.757812 7.355469 15.902344 7.355469 13.996094 C 7.355469 12.109375 8.203125 10.222656 9.4375 8.980469 C 10.667969 7.742188 12.535156 7.042969 14.386719 7.042969 C 16.511719 7.042969 18.03125 8.171875 18.597656 8.683594 L 21.78125 5.519531 C 20.847656 4.699219 18.28125 2.628906 14.285156 2.628906 C 11.199219 2.628906 8.242188 3.8125 6.082031 5.964844 C 3.949219 8.089844 2.84375 11.15625 2.84375 14 C 2.84375 16.84375 3.886719 19.765625 5.957031 21.902344 C 8.164062 24.183594 11.292969 25.375 14.515625 25.375 C 17.445312 25.375 20.222656 24.226562 22.203125 22.144531 C 24.148438 20.09375 25.15625 17.253906 25.15625 14.277344 C 25.15625 13.027344 25.03125 12.28125 25.023438 12.25 Z M 25.023438 12.25 "/>
</g>
</svg>
